<svg width="66" height="65" viewBox="0 0 66 65" fill="none" xmlns="http://www.w3.org/2000/svg">
<path d="M21.8376 51.2541C21.8376 51.5173 21.5348 51.7279 21.1531 51.7279C20.7187 51.7674 20.416 51.5568 20.416 51.2541C20.416 50.9908 20.7187 50.7802 21.1004 50.7802C21.4953 50.7407 21.8376 50.9513 21.8376 51.2541ZM17.7439 50.6618C17.6517 50.925 17.915 51.2278 18.3099 51.3067C18.6521 51.4383 19.047 51.3067 19.126 51.0435C19.205 50.7802 18.9549 50.4775 18.56 50.359C18.2177 50.2669 17.836 50.3985 17.7439 50.6618ZM23.5619 50.438C23.1802 50.5302 22.917 50.7802 22.9564 51.083C22.9959 51.3462 23.3382 51.5173 23.7331 51.4252C24.1148 51.3331 24.3781 51.083 24.3386 50.8197C24.2991 50.5696 23.9437 50.3985 23.5619 50.438ZM32.2233 0C13.966 0 0 13.8599 0 32.1161C0 46.7131 9.18784 59.2041 22.3115 63.6003C23.9963 63.9031 24.5887 62.8632 24.5887 62.0077C24.5887 61.1916 24.5492 56.6901 24.5492 53.926C24.5492 53.926 15.335 55.9004 13.4 50.0037C13.4 50.0037 11.8994 46.1734 9.74069 45.1862C9.74069 45.1862 6.72634 43.1198 9.9513 43.1592C9.9513 43.1592 13.2289 43.4225 15.0323 46.5551C17.915 51.6358 22.7458 50.1748 24.6282 49.3061C24.9309 47.2001 25.7865 45.7391 26.7343 44.8704C19.3761 44.0543 11.9521 42.9881 11.9521 30.326C11.9521 26.7063 12.9525 24.8899 15.0586 22.5734C14.7163 21.7178 13.5975 18.1903 15.4008 13.6362C18.1519 12.7806 24.4834 17.19 24.4834 17.19C27.116 16.4529 29.946 16.0712 32.7498 16.0712C35.5535 16.0712 38.3836 16.4529 41.0162 17.19C41.0162 17.19 47.3477 12.7675 50.0987 13.6362C51.9021 18.2035 50.7832 21.7178 50.441 22.5734C52.5471 24.9031 53.8371 26.7195 53.8371 30.326C53.8371 43.0276 46.084 44.0411 38.7258 44.8704C39.9368 45.9102 40.9636 47.8845 40.9636 50.9777C40.9636 55.4134 40.9241 60.9021 40.9241 61.9814C40.9241 62.8369 41.5296 63.8767 43.2013 63.574C56.3644 59.2041 65.289 46.7131 65.289 32.1161C65.289 13.8599 50.4805 0 32.2233 0ZM12.7945 45.3968C12.6234 45.5285 12.6629 45.8312 12.8867 46.0813C13.0973 46.2919 13.4 46.384 13.5712 46.2129C13.7423 46.0813 13.7028 45.7786 13.479 45.5285C13.2684 45.3179 12.9657 45.2257 12.7945 45.3968ZM11.3729 44.3307C11.2808 44.5018 11.4124 44.7124 11.6757 44.844C11.8863 44.9757 12.1495 44.9362 12.2417 44.7519C12.3338 44.5808 12.2022 44.3702 11.9389 44.2386C11.6757 44.1596 11.4651 44.1991 11.3729 44.3307ZM15.6378 49.0165C15.4272 49.1876 15.5061 49.5825 15.8089 49.8325C16.1116 50.1353 16.4934 50.1748 16.6645 49.9642C16.8356 49.7931 16.7566 49.3982 16.4934 49.1481C16.2038 48.8454 15.8089 48.8059 15.6378 49.0165ZM14.1372 47.0816C13.9266 47.2132 13.9266 47.5555 14.1372 47.8582C14.3478 48.1609 14.7032 48.2926 14.8743 48.1609C15.0849 47.9898 15.0849 47.6476 14.8743 47.3449C14.69 47.0421 14.3478 46.9105 14.1372 47.0816Z" transform="translate(0.138184 0.660522)" fill="#E0E0E0" fill-opacity="0.25"/>
</svg>
