<svg width="45" height="65" viewBox="0 0 45 65" fill="none" xmlns="http://www.w3.org/2000/svg">
<path d="M37.4033 26.7794C38.8572 22.7265 43.0449 11.0027 43.0449 7.2481C43.0449 3.94108 41.0939 1.16865 37.6145 1.16865C32.0724 1.16865 27.1019 17.5421 25.5486 21.4459C24.3432 17.9027 18.7017 0 13.7311 0C9.86653 0 8.05228 2.84702 8.05228 6.42756C8.05228 10.8162 12.3021 22.1919 13.843 26.5681C13.0601 26.2821 12.2151 26.0335 11.3577 26.0335C8.44993 26.0335 5.35577 29.6513 5.35577 32.5729C5.35577 33.6794 5.96466 35.2335 6.34987 36.2654C1.76455 37.5086 1.34178e-05 40.567 1.34178e-05 45.1794C-0.0124129 54.1556 8.48721 63.654 20.4413 63.654C35.1044 63.654 44.2254 52.6388 44.2254 38.4286C44.2254 33.0702 43.3679 28.234 37.4033 26.7794V26.7794ZM33.0044 13.427C33.5014 11.8978 35.6263 5.43297 37.6145 5.43297C38.6832 5.43297 38.969 6.53945 38.969 7.42215C38.969 9.79674 34.1725 22.9129 33.1162 25.8221L28.8913 25.0762L33.0044 13.427V13.427ZM11.9542 6.00486C11.9542 4.5254 13.756 0.323243 17.7076 11.8605L22.0071 24.3302C20.0686 24.1686 18.565 23.9573 17.6081 24.5043C16.2537 20.9238 11.9542 9.62269 11.9542 6.00486V6.00486ZM11.6683 30.3351C15.3093 30.3351 20.0064 42.0962 20.0064 43.6875C20.0064 44.3216 19.3975 45.1048 18.6892 45.1048C16.0921 45.1048 9.13337 35.5443 9.13337 32.9583C9.1458 32.001 10.7115 30.3351 11.6683 30.3351V30.3351ZM34.5701 53.4967C30.954 57.475 26.3314 59.5388 20.9384 59.5388C13.5572 59.5388 7.7292 55.4859 4.92084 48.561C2.79594 43.1653 5.39305 40.0697 7.48067 40.0697C8.89727 40.0697 14.2282 47.5664 14.2282 49.1578C14.2282 49.767 13.2713 50.1897 12.7743 50.1897C10.7737 50.1897 9.99079 48.2626 6.42443 43.7994C2.73381 47.4918 8.97183 54.6032 13.669 54.6032C16.9123 54.6032 19.0247 51.5945 18.391 49.3816C18.8508 49.3816 19.4224 49.4188 19.8449 49.307C19.9816 52.6761 20.9757 56.6918 25.0267 56.9778C25.0267 56.8659 25.2752 56.0951 25.2752 56.0578C25.2752 53.8945 23.958 52.0048 23.958 49.8043C23.958 46.2859 26.6545 42.8794 29.3883 40.8902C30.3824 40.1443 31.5878 39.6843 32.7558 39.2616C33.9612 38.8016 35.2411 38.267 36.1607 37.347C36.024 35.9545 35.4524 34.7237 34.0606 34.7237C30.6185 34.7237 19.0744 35.221 19.0744 29.7881C19.0744 28.9551 19.0869 28.1594 21.2366 28.1594C25.2503 28.1594 35.4399 29.154 38.4223 31.7773C40.6714 33.7789 41.4419 45.8507 34.5701 53.4967V53.4967ZM22.3177 37.8318C23.5231 38.2172 24.7657 38.3291 26.0083 38.5778C25.0888 39.2491 24.2687 40.0697 23.4858 40.9524C23.1379 39.8956 22.7154 38.8637 22.3177 37.8318V37.8318Z" transform="translate(0.265137 0.660522)" fill="#E0E0E0" fill-opacity="0.25"/>
</svg>
