<svg width="65" height="65" viewBox="0 0 65 65" fill="none" xmlns="http://www.w3.org/2000/svg">
<path d="M14.2519 63.654H1.05149V21.1564H14.2519V63.654V63.654ZM7.64461 15.3594C3.42444 15.3594 0 11.8641 0 7.64416C0 3.42424 3.42444 0 7.64461 0C11.8648 0 15.2892 3.42424 15.2892 7.64416C15.2892 11.8641 11.8648 15.3594 7.64461 15.3594ZM63.6577 63.654H50.4857V42.9664C50.4857 38.0361 50.3862 31.7133 43.6226 31.7133C36.7595 31.7133 35.708 37.0699 35.708 42.6112V63.654H22.5218V21.1564H35.1823V26.9535H35.367C37.1289 23.6145 41.4343 20.0908 47.857 20.0908C61.2137 20.0908 63.6719 28.8858 63.6719 40.3094V63.654H63.6577Z" transform="translate(0.339844 0.660522)" fill="#E0E0E0" fill-opacity="0.25"/>
</svg>
