<svg width="81" height="65" viewBox="0 0 81 65" fill="none" xmlns="http://www.w3.org/2000/svg">
<path d="M9.50387 12.9862C9.60339 12.0077 9.22191 11.0292 8.49212 10.3657L1.01176 1.3434V0H24.2656L42.245 39.423L58.0516 0H80.2273V1.3434L73.825 7.47992C73.2777 7.89455 72.9957 8.59113 73.1118 9.27112V54.3828C72.9957 55.0628 73.2777 55.7594 73.825 56.174L80.078 62.3106V63.654H48.6141V62.3106L55.0992 56.0248C55.7295 55.3945 55.7295 55.1955 55.7295 54.2336V17.7793L37.7004 63.5379H35.2622L14.2973 17.7793V48.4453C14.1148 49.739 14.5461 51.0326 15.4583 51.9614L23.8841 62.1779V63.5213H-3.16356e-08V62.1945L8.42577 51.9614C9.32143 51.0326 9.73608 49.7224 9.50387 48.4453V12.9862Z" transform="translate(0.506836 0.660522)" fill="#E0E0E0" fill-opacity="0.25"/>
</svg>
