<svg width="80" height="65" viewBox="0 0 80 65" fill="none" xmlns="http://www.w3.org/2000/svg">
<path d="M70.3219 15.8637C70.3716 16.5599 70.3716 17.2562 70.3716 17.9524C70.3716 39.1869 54.2086 63.654 24.6674 63.654C15.5663 63.654 7.11179 61.0182 0 56.4432C1.29309 56.5923 2.53628 56.6421 3.87913 56.6421C11.3886 56.6421 18.3016 54.106 23.8219 49.7795C16.7599 49.6302 10.8417 45.0054 8.8026 38.6399C9.79733 38.789 10.7919 38.8885 11.8364 38.8885C13.2786 38.8885 14.721 38.6895 16.0636 38.3416C8.70325 36.8496 3.18276 30.3848 3.18276 22.5772V22.3784C5.32118 23.5719 7.80801 24.3178 10.4436 24.4172C6.1169 21.5328 3.28226 16.6096 3.28226 11.0399C3.28226 8.05615 4.07783 5.32102 5.47043 2.93398C13.378 12.681 25.2641 19.0463 38.5923 19.7426C38.3437 18.5491 38.1944 17.306 38.1944 16.0627C38.1944 7.21072 45.356 1.12115e-07 54.2581 1.12115e-07C58.8832 1.12115e-07 63.0607 1.93945 65.995 5.07242C69.6254 4.37624 73.1066 3.03347 76.1902 1.19352C74.9964 4.92333 72.4601 8.0563 69.1281 10.0453C72.3608 9.69741 75.494 8.80208 78.3783 7.55896C76.1905 10.7415 73.455 13.576 70.3219 15.8637V15.8637Z" transform="translate(0.646973 0.660522)" fill="#E0E0E0" fill-opacity="0.25"/>
</svg>
